<?xml version="1.0" encoding="UTF-8" standalone="no"?>
<svg
   viewBox="0 0 24 24"
   version="1.1"
   id="svg1"
   sodipodi:docname="chef-hat.svg"
   inkscape:version="1.3 (0e150ed6c4, 2023-07-21)"
   xmlns:inkscape="http://www.inkscape.org/namespaces/inkscape"
   xmlns:sodipodi="http://sodipodi.sourceforge.net/DTD/sodipodi-0.dtd"
   xmlns="http://www.w3.org/2000/svg"
   xmlns:svg="http://www.w3.org/2000/svg">
  <defs
     id="defs1" />
  <sodipodi:namedview
     id="namedview1"
     pagecolor="#505050"
     bordercolor="#eeeeee"
     borderopacity="1"
     inkscape:showpageshadow="0"
     inkscape:pageopacity="0"
     inkscape:pagecheckerboard="0"
     inkscape:deskcolor="#d1d1d1"
     inkscape:zoom="49.708333"
     inkscape:cx="12"
     inkscape:cy="12"
     inkscape:window-width="1821"
     inkscape:window-height="1237"
     inkscape:window-x="437"
     inkscape:window-y="55"
     inkscape:window-maximized="0"
     inkscape:current-layer="svg1" />
  <path
     d="M12.5,1.5C10.73,1.5 9.17,2.67 8.67,4.37C8.14,4.13 7.58,4 7,4A4,4 0 0,0 3,8C3,9.82 4.24,11.41 6,11.87V19H19V11.87C20.76,11.41 22,9.82 22,8A4,4 0 0,0 18,4C17.42,4 16.86,4.13 16.33,4.37C15.83,2.67 14.27,1.5 12.5,1.5M12,10.5H13V17.5H12V10.5M9,12.5H10V17.5H9V12.5M15,12.5H16V17.5H15V12.5M6,20V21A1,1 0 0,0 7,22H18A1,1 0 0,0 19,21V20H6Z"
     id="path1"
     style="fill:#819b34;fill-opacity:1;stroke-width:0.3;stroke-dasharray:none;stroke:none;stroke-opacity:1" />
</svg>
